<svg xmlns="http://www.w3.org/2000/svg" viewBox="0 0 25 25"><path fill="#fff" d="M12.5,0A12.5,12.5,0,1,0,25,12.5,12.5,12.5,0,0,0,12.5,0Zm0,22.947A10.447,10.447,0,1,1,22.947,12.5,10.459,10.459,0,0,1,12.5,22.947Z"/><path fill="#fff" d="M20.223,10.058c0-.01,0-.019-.005-.029s-.007-.037-.012-.056-.007-.022-.01-.032-.011-.033-.017-.048-.01-.022-.015-.033-.014-.03-.023-.044l-.019-.031c-.009-.014-.018-.027-.028-.04l-.023-.029c-.011-.012-.022-.024-.033-.036l-.026-.026-.038-.032-.03-.023-.011-.008-7.065-4.71a.664.664,0,0,0-.737,0l-7.065,4.71-.011.008-.03.023-.038.032-.027.026c-.012.011-.023.024-.033.036l-.023.029c-.01.013-.019.026-.028.04l-.019.031c-.008.014-.015.029-.023.044s-.01.022-.015.033-.012.032-.017.048-.007.021-.01.032-.008.037-.012.056,0,.019-.005.029a.644.644,0,0,0-.006.087v4.71a.649.649,0,0,0,.006.087c0,.009,0,.019.005.028s.007.037.012.056.007.022.01.032.011.032.017.049.01.022.015.032.014.03.023.044l.019.031c.009.014.018.027.028.04l.023.029c.01.012.021.024.033.036l.027.026.038.032.03.023.011.008,7.065,4.71a.663.663,0,0,0,.737,0l7.065-4.71.011-.008.03-.023.038-.032.026-.026c.012-.011.023-.024.033-.036l.023-.029c.01-.013.019-.026.028-.04l.019-.031c.008-.015.016-.029.023-.044s-.01-.021.015-.032.012-.032.017-.049.007-.021.01-.032.008-.037.012-.056,0-.019.005-.028a.691.691,0,0,0,.006-.087v-4.71A.679.679,0,0,0,20.223,10.058Zm-7.059-3.382,5.2,3.469-2.325,1.555-2.88-1.926Zm-1.329,0v3.1l-2.88,1.926L6.631,10.058Zm-5.736,4.712,1.662,1.112-1.662,1.112Zm5.736,6.935-5.2-3.469,2.325-1.555,2.88,1.926v3.1Zm.664-4.252-2.349-1.571,2.349-1.571,2.349,1.571Zm.664,4.252v-3.1l2.88-1.926,2.325,1.555Zm5.736-4.712-1.662-1.112,1.662-1.112Z"/></svg>
