<svg xmlns="http://www.w3.org/2000/svg" viewBox="0 0 29.544 25"><path fill="#fff" d="M39.209,4.573h0L30.269.1A.933.933,0,0,0,30.08.035.987.987,0,0,0,29.843,0a1.022,1.022,0,0,0-.863.473L23.84,8.81l6.441,10.464L39.232,4.727a.106.106,0,0,0-.024-.154Z" transform="translate(-9.753 0)"/><path fill="#fff" d="M19.06,11.69v9.489L27.492,25.4Z" transform="translate(-7.798 -4.783)"/><path fill="#fff" d="M35.48,26.332l6.943,3.474c.9.449,1.637.136,1.637-.709V12.37Z" transform="translate(-14.516 -5.061)"/><path fill="#fff" d="M9.8,4.673,1.093.318A1,1,0,0,0,.65.2C.266.2,0,.5,0,.992v18.79a1.625,1.625,0,0,0,.815,1.324L8.5,24.94a1.247,1.247,0,0,0,.555.142c.479,0,.81-.366.81-.987V4.756A.1.1,0,0,0,9.8,4.673Z" transform="translate(0 -0.082)"/></svg>
