<svg xmlns="http://www.w3.org/2000/svg" viewBox="0 0 25.697 25"><path fill="#fff" fill-rule="evenodd" d="M12.809,0A12.833,12.833,0,0,0,8.723,24.99c.629.079.864-.314.864-.629v-2.2c-3.536.786-4.322-1.729-4.322-1.729a3.245,3.245,0,0,0-1.415-1.886c-1.179-.786.079-.786.079-.786A2.738,2.738,0,0,1,5.894,19.1a2.72,2.72,0,0,0,3.693,1.1,2.736,2.736,0,0,1,.786-1.729c-2.829-.314-5.815-1.415-5.815-6.365A4.872,4.872,0,0,1,5.894,8.644a4.653,4.653,0,0,1,.157-3.3s1.1-.314,3.536,1.336a10.981,10.981,0,0,1,3.222-.393,14.464,14.464,0,0,1,3.222.393c2.436-1.65,3.536-1.336,3.536-1.336a4.92,4.92,0,0,1,.157,3.379a5.083,5.083,0,0,1,1.336,3.458c0,4.951-2.986,5.972-5.815,6.287a3,3,0,0,1,.864,2.358v3.536c0,.314.236.707.864.629A12.833,12.833,0,0,0,12.809,0Z"/></svg>
